<svg xmlns="http://www.w3.org/2000/svg" version="1.1" xmlns:xlink="http://www.w3.org/1999/xlink" xmlns:svgjs="http://svgjs.dev/svgjs" viewBox="0 0 10.259240363951616 3.1727083364272217"><g transform="matrix(1,0,0,1,3.3287792454271763,0.785252261963611)"><g><path d=" M 0.502674 0.580284 C 0.502674 0.56715 0.491928 0.557598 0.48237599999999997 0.557598 C 0.46804799999999996 0.557598 0.37491599999999997 0.6208800000000001 0.355812 0.635208 C 0.34626 0.642372 0.342678 0.648342 0.342678 0.6662520000000001 L 0.342678 0.7653540000000001 C 0.342678 0.7737120000000001 0.335514 0.780876 0.327156 0.780876 L 0.223278 0.780876 C 0.21492 0.780876 0.207756 0.7737120000000001 0.207756 0.7653540000000001 L 0.207756 0.15760800000000008 C 0.207756 0.14925 0.21492 0.14208600000000005 0.223278 0.14208600000000005 L 0.315216 0.14208600000000005 C 0.323574 0.14208600000000005 0.330738 0.14925 0.330738 0.15760800000000008 L 0.330738 0.309246 C 0.330738 0.32238 0.341484 0.331932 0.351036 0.331932 C 0.36536399999999997 0.331932 0.458496 0.26865000000000006 0.47759999999999997 0.25432200000000005 C 0.487152 0.2471580000000001 0.490734 0.24118800000000007 0.490734 0.2232780000000001 L 0.490734 0.10865400000000003 C 0.490734 0.059700000000000086 0.442974 0.010746000000000033 0.37252799999999997 0.010746000000000033 L 0.16119 0.010746000000000033 C 0.096714 0.010746000000000033 0.04776 0.04298400000000002 0.04776 0.102684 L 0.04776 0.8202780000000001 C 0.04776 0.879978 0.096714 0.912216 0.16119 0.912216 L 0.384468 0.912216 C 0.457302 0.912216 0.502674 0.860874 0.502674 0.8155020000000001 M 0.7927792705078125 0.59103 L 0.8715832705078125 0.2555160000000001 L 0.9288952705078125 0.5181960000000001 M 1.1521732705078125 0.7653540000000001 C 1.1390392705078125 0.7175940000000001 0.9921772705078125 0.13134 0.9921772705078125 0.09432600000000002 C 0.9921772705078125 0.07164000000000004 1.0232212705078125 0.046565999999999996 1.0232212705078125 0.0322380000000001 C 1.0232212705078125 0.01910400000000001 1.0136692705078125 0.010746000000000033 0.9969532705078126 0.010746000000000033 L 0.7497952705078125 0.010746000000000033 C 0.7330792705078125 0.010746000000000033 0.7235272705078125 0.01910400000000001 0.7235272705078125 0.0322380000000001 C 0.7235272705078125 0.046565999999999996 0.7545712705078125 0.07164000000000004 0.7545712705078125 0.09432600000000002 C 0.7545712705078125 0.13134 0.5921872705078125 0.7689360000000001 0.5826352705078125 0.80595 C 0.5718892705078125 0.84774 0.5253232705078125 0.8716200000000001 0.5253232705078125 0.8907240000000001 C 0.5253232705078125 0.903858 0.5348752705078125 0.912216 0.5515912705078125 0.912216 L 0.7641232705078125 0.912216 C 0.7832272705078125 0.912216 0.7915852705078126 0.902664 0.7915852705078126 0.8907240000000001 C 0.7915852705078126 0.8716200000000001 0.7486012705078124 0.856098 0.7486012705078124 0.809532 L 0.7486012705078124 0.777294 L 0.9647152705078126 0.660282 C 0.9647152705078126 0.660282 1.0041172705078125 0.821472 1.0041172705078125 0.8298300000000001 C 1.0041172705078125 0.8584860000000001 0.9730732705078124 0.8716200000000001 0.9730732705078124 0.8907240000000001 C 0.9730732705078124 0.902664 0.9814312705078125 0.912216 1.0005352705078125 0.912216 L 1.1963512705078125 0.912216 C 1.2130672705078125 0.912216 1.2226192705078125 0.903858 1.2226192705078125 0.8907240000000001 C 1.2226192705078125 0.8716200000000001 1.1712772705078125 0.838188 1.1521732705078125 0.7653540000000001 M 1.5796404287109373 0.14208600000000005 C 1.5915804287109374 0.14208600000000005 1.5963564287109373 0.14686200000000005 1.5963564287109373 0.15760800000000008 L 1.5963564287109373 0.360588 C 1.5963564287109373 0.368946 1.5939684287109372 0.378498 1.5677004287109373 0.3964080000000001 L 1.4494944287109373 0.4776 L 1.4494944287109373 0.14208600000000005 M 1.7551584287109372 0.804756 C 1.7468004287109373 0.789234 1.6966524287109372 0.6626700000000001 1.6476984287109373 0.5217780000000001 C 1.7026224287109373 0.48715200000000003 1.7563524287109373 0.456108 1.7563524287109373 0.40476600000000007 L 1.7563524287109373 0.12417600000000006 C 1.7563524287109373 0.04537200000000008 1.7062044287109372 0.009552000000000005 1.6262064287109372 0.009552000000000005 L 1.2644244287109374 0.010746000000000033 C 1.2477084287109372 0.010746000000000033 1.2381564287109372 0.020298000000000038 1.2381564287109372 0.03104400000000007 C 1.2381564287109372 0.056118 1.2894984287109372 0.0835800000000001 1.2894984287109372 0.13134 L 1.2894984287109372 0.791622 C 1.2894984287109372 0.8393820000000001 1.2381564287109372 0.8668440000000001 1.2381564287109372 0.891918 C 1.2381564287109372 0.902664 1.2477084287109372 0.912216 1.2644244287109374 0.912216 L 1.4745684287109373 0.912216 C 1.4912844287109372 0.912216 1.5008364287109373 0.902664 1.5008364287109373 0.891918 C 1.5008364287109373 0.8668440000000001 1.4494944287109373 0.8393820000000001 1.4494944287109373 0.791622 L 1.4494944287109373 0.657894 C 1.4494944287109373 0.65073 1.4506884287109374 0.6471480000000001 1.4542704287109374 0.64476 L 1.4984484287109372 0.617298 C 1.4984484287109372 0.617298 1.5820284287109372 0.831024 1.5820284287109372 0.8441580000000001 C 1.5820284287109372 0.870426 1.5545664287109373 0.874008 1.5545664287109373 0.891918 C 1.5545664287109373 0.902664 1.5653124287109375 0.912216 1.5820284287109372 0.912216 L 1.7885904287109373 0.912216 C 1.8017244287109373 0.912216 1.8136644287109374 0.902664 1.8136644287109374 0.891918 C 1.8136644287109374 0.86565 1.7909784287109374 0.868038 1.7551584287109372 0.804756 M 2.05965699609375 0.780876 L 2.05965699609375 0.13134 C 2.05965699609375 0.0835800000000001 2.11099899609375 0.056118 2.11099899609375 0.03104400000000007 C 2.11099899609375 0.020298000000000038 2.10144699609375 0.010746000000000033 2.08473099609375 0.010746000000000033 L 1.87458699609375 0.010746000000000033 C 1.8578709960937498 0.010746000000000033 1.8483189960937498 0.020298000000000038 1.8483189960937498 0.03104400000000007 C 1.8483189960937498 0.056118 1.8996609960937498 0.0835800000000001 1.8996609960937498 0.13134 L 1.8996609960937498 0.791622 C 1.8996609960937498 0.8393820000000001 1.8483189960937498 0.8668440000000001 1.8483189960937498 0.891918 C 1.8483189960937498 0.902664 1.8578709960937498 0.912216 1.87458699609375 0.912216 L 2.25189099609375 0.912216 C 2.28054699609375 0.912216 2.29248699609375 0.9002760000000001 2.29248699609375 0.8716200000000001 L 2.29248699609375 0.619686 C 2.29248699609375 0.606552 2.28174099609375 0.597 2.27218899609375 0.597 C 2.2578609960937497 0.597 2.16472899609375 0.660282 2.14562499609375 0.67461 C 2.13607299609375 0.6817740000000001 2.13249099609375 0.687744 2.13249099609375 0.705654 L 2.13249099609375 0.780876 M 2.464396177734375 0.912216 L 2.699614177734375 0.912216 C 2.772448177734375 0.912216 2.817820177734375 0.8584860000000001 2.817820177734375 0.809532 L 2.817820177734375 0.11343000000000003 C 2.817820177734375 0.060894000000000004 2.771254177734375 0.010746000000000033 2.699614177734375 0.010746000000000033 L 2.464396177734375 0.010746000000000033 C 2.401114177734375 0.010746000000000033 2.350966177734375 0.04417800000000005 2.350966177734375 0.10746 L 2.350966177734375 0.8155020000000001 C 2.350966177734375 0.87759 2.399920177734375 0.912216 2.464396177734375 0.912216 M 2.510962177734375 0.772518 L 2.510962177734375 0.15044400000000002 C 2.510962177734375 0.14566800000000002 2.514544177734375 0.14208600000000005 2.519320177734375 0.14208600000000005 L 2.649466177734375 0.14208600000000005 C 2.654242177734375 0.14208600000000005 2.657824177734375 0.14566800000000002 2.657824177734375 0.15044400000000002 L 2.657824177734375 0.772518 C 2.657824177734375 0.7761 2.654242177734375 0.780876 2.649466177734375 0.780876 L 2.519320177734375 0.780876 C 2.514544177734375 0.780876 2.510962177734375 0.7761 2.510962177734375 0.772518 M 3.038742826171875 0.912216 L 3.250080826171875 0.912216 C 3.307392826171875 0.912216 3.3635108261718747 0.863262 3.3635108261718747 0.814308 L 3.3635108261718747 0.568344 C 3.3635108261718747 0.517002 3.342018826171875 0.49312200000000006 3.302616826171875 0.46685400000000005 L 3.103218826171875 0.32954400000000006 C 3.084114826171875 0.31521600000000005 3.0805328261718747 0.30566400000000005 3.0805328261718747 0.2889480000000001 L 3.0805328261718747 0.14208600000000005 L 3.191574826171875 0.14208600000000005 L 3.191574826171875 0.22208400000000006 C 3.191574826171875 0.253128 3.201126826171875 0.26387400000000005 3.211872826171875 0.271038 C 3.232170826171875 0.2841720000000001 3.296646826171875 0.32954400000000006 3.3253028261718747 0.32954400000000006 C 3.3372428261718747 0.32954400000000006 3.351570826171875 0.31521600000000005 3.351570826171875 0.2937240000000001 L 3.351570826171875 0.10865400000000003 C 3.351570826171875 0.059700000000000086 3.3050048261718747 0.010746000000000033 3.233364826171875 0.010746000000000033 L 3.033966826171875 0.010746000000000033 C 2.970684826171875 0.010746000000000033 2.9205368261718747 0.04298400000000002 2.9205368261718747 0.102684 L 2.9205368261718747 0.3402900000000001 C 2.9205368261718747 0.392826 2.950386826171875 0.41790000000000005 2.985012826171875 0.44178000000000006 L 3.182022826171875 0.577896 C 3.197544826171875 0.5886420000000001 3.203514826171875 0.599388 3.203514826171875 0.6149100000000001 L 3.203514826171875 0.780876 L 3.0805328261718747 0.780876 L 3.0805328261718747 0.66864 C 3.0805328261718747 0.637596 3.070980826171875 0.62685 3.060234826171875 0.619686 C 3.041130826171875 0.6053580000000001 2.975460826171875 0.56118 2.951580826171875 0.56118 C 2.934864826171875 0.56118 2.9205368261718747 0.574314 2.9205368261718747 0.5958060000000001 L 2.9205368261718747 0.814308 C 2.9205368261718747 0.863262 2.968296826171875 0.912216 3.038742826171875 0.912216 M 3.8626226484375 0.912216 L 4.0739606484375 0.912216 C 4.1312726484375 0.912216 4.1873906484375 0.863262 4.1873906484375 0.814308 L 4.1873906484375 0.568344 C 4.1873906484375 0.517002 4.1658986484375005 0.49312200000000006 4.1264966484375005 0.46685400000000005 L 3.9270986484375 0.32954400000000006 C 3.9079946484375 0.31521600000000005 3.9044126484375 0.30566400000000005 3.9044126484375 0.2889480000000001 L 3.9044126484375 0.14208600000000005 L 4.0154546484375 0.14208600000000005 L 4.0154546484375 0.22208400000000006 C 4.0154546484375 0.253128 4.0250066484375004 0.26387400000000005 4.0357526484375 0.271038 C 4.0560506484375 0.2841720000000001 4.1205266484375 0.32954400000000006 4.1491826484375 0.32954400000000006 C 4.1611226484375 0.32954400000000006 4.1754506484375 0.31521600000000005 4.1754506484375 0.2937240000000001 L 4.1754506484375 0.10865400000000003 C 4.1754506484375 0.059700000000000086 4.1288846484375 0.010746000000000033 4.0572446484375 0.010746000000000033 L 3.8578466484375 0.010746000000000033 C 3.7945646484375 0.010746000000000033 3.7444166484375 0.04298400000000002 3.7444166484375 0.102684 L 3.7444166484375 0.3402900000000001 C 3.7444166484375 0.392826 3.7742666484375 0.41790000000000005 3.8088926484375003 0.44178000000000006 L 4.0059026484375 0.577896 C 4.0214246484375 0.5886420000000001 4.0273946484375 0.599388 4.0273946484375 0.6149100000000001 L 4.0273946484375 0.780876 L 3.9044126484375 0.780876 L 3.9044126484375 0.66864 C 3.9044126484375 0.637596 3.8948606484375 0.62685 3.8841146484375 0.619686 C 3.8650106484375 0.6053580000000001 3.7993406484375 0.56118 3.7754606484375 0.56118 C 3.7587446484375002 0.56118 3.7444166484375 0.574314 3.7444166484375 0.5958060000000001 L 3.7444166484375 0.814308 C 3.7444166484375 0.863262 3.7921766484375 0.912216 3.8626226484375 0.912216 M 4.557493918945313 0.14208600000000005 C 4.631521918945313 0.14208600000000005 4.631521918945313 0.14925 4.655401918945313 0.17551800000000006 C 4.675699918945313 0.19939800000000008 4.685251918945313 0.20895000000000008 4.700773918945313 0.20895000000000008 C 4.719877918945313 0.20895000000000008 4.733011918945313 0.1958160000000001 4.733011918945313 0.1767120000000001 L 4.733011918945313 0.03104400000000007 C 4.733011918945313 0.011940000000000062 4.719877918945313 0 4.700773918945313 0 C 4.693609918945313 0 4.681669918945313 0.0011940000000000284 4.661371918945313 0.003582000000000085 C 4.6374919189453125 0.007164000000000059 4.606447918945313 0.010746000000000033 4.5873439189453125 0.010746000000000033 L 4.367647918945313 0.010746000000000033 C 4.282873918945313 0.010746000000000033 4.267351918945312 0 4.248247918945313 0 C 4.229143918945312 0 4.221979918945313 0.008358000000000088 4.221979918945313 0.027462000000000097 L 4.221979918945313 0.18387600000000004 C 4.221979918945313 0.19820400000000005 4.230337918945313 0.20895000000000008 4.243471918945313 0.20895000000000008 C 4.260187918945313 0.20895000000000008 4.270933918945313 0.19701000000000002 4.297201918945313 0.17432400000000003 C 4.323469918945313 0.15163800000000005 4.3306339189453125 0.14208600000000005 4.397497918945313 0.14208600000000005 L 4.397497918945313 0.791622 C 4.397497918945313 0.8393820000000001 4.346155918945313 0.8668440000000001 4.346155918945313 0.891918 C 4.346155918945313 0.902664 4.3557079189453125 0.912216 4.372423918945313 0.912216 L 4.582567918945313 0.912216 C 4.5992839189453125 0.912216 4.608835918945313 0.902664 4.608835918945313 0.891918 C 4.608835918945313 0.8668440000000001 4.557493918945313 0.8393820000000001 4.557493918945313 0.791622 M 4.904945586914063 0.912216 L 5.1401635869140625 0.912216 C 5.212997586914063 0.912216 5.258369586914062 0.8584860000000001 5.258369586914062 0.809532 L 5.258369586914062 0.11343000000000003 C 5.258369586914062 0.060894000000000004 5.211803586914062 0.010746000000000033 5.1401635869140625 0.010746000000000033 L 4.904945586914063 0.010746000000000033 C 4.841663586914063 0.010746000000000033 4.791515586914063 0.04417800000000005 4.791515586914063 0.10746 L 4.791515586914063 0.8155020000000001 C 4.791515586914063 0.87759 4.840469586914063 0.912216 4.904945586914063 0.912216 M 4.951511586914062 0.772518 L 4.951511586914062 0.15044400000000002 C 4.951511586914062 0.14566800000000002 4.955093586914062 0.14208600000000005 4.9598695869140625 0.14208600000000005 L 5.090015586914062 0.14208600000000005 C 5.094791586914062 0.14208600000000005 5.098373586914063 0.14566800000000002 5.098373586914063 0.15044400000000002 L 5.098373586914063 0.772518 C 5.098373586914063 0.7761 5.094791586914062 0.780876 5.090015586914062 0.780876 L 4.9598695869140625 0.780876 C 4.955093586914062 0.780876 4.951511586914062 0.7761 4.951511586914062 0.772518 M 5.6703094980468745 0.14208600000000005 C 5.6822494980468745 0.14208600000000005 5.687025498046875 0.14686200000000005 5.687025498046875 0.15760800000000008 L 5.687025498046875 0.360588 C 5.687025498046875 0.368946 5.684637498046875 0.378498 5.658369498046875 0.3964080000000001 L 5.540163498046875 0.4776 L 5.540163498046875 0.14208600000000005 M 5.845827498046875 0.804756 C 5.837469498046875 0.789234 5.787321498046875 0.6626700000000001 5.738367498046875 0.5217780000000001 C 5.793291498046875 0.48715200000000003 5.847021498046875 0.456108 5.847021498046875 0.40476600000000007 L 5.847021498046875 0.12417600000000006 C 5.847021498046875 0.04537200000000008 5.796873498046875 0.009552000000000005 5.716875498046875 0.009552000000000005 L 5.355093498046875 0.010746000000000033 C 5.338377498046875 0.010746000000000033 5.328825498046875 0.020298000000000038 5.328825498046875 0.03104400000000007 C 5.328825498046875 0.056118 5.380167498046875 0.0835800000000001 5.380167498046875 0.13134 L 5.380167498046875 0.791622 C 5.380167498046875 0.8393820000000001 5.328825498046875 0.8668440000000001 5.328825498046875 0.891918 C 5.328825498046875 0.902664 5.338377498046875 0.912216 5.355093498046875 0.912216 L 5.565237498046875 0.912216 C 5.581953498046875 0.912216 5.591505498046875 0.902664 5.591505498046875 0.891918 C 5.591505498046875 0.8668440000000001 5.540163498046875 0.8393820000000001 5.540163498046875 0.791622 L 5.540163498046875 0.657894 C 5.540163498046875 0.65073 5.5413574980468745 0.6471480000000001 5.544939498046875 0.64476 L 5.589117498046875 0.617298 C 5.589117498046875 0.617298 5.672697498046875 0.831024 5.672697498046875 0.8441580000000001 C 5.672697498046875 0.870426 5.645235498046874 0.874008 5.645235498046874 0.891918 C 5.645235498046874 0.902664 5.655981498046875 0.912216 5.672697498046875 0.912216 L 5.879259498046875 0.912216 C 5.892393498046875 0.912216 5.904333498046875 0.902664 5.904333498046875 0.891918 C 5.904333498046875 0.86565 5.881647498046875 0.868038 5.845827498046875 0.804756 M 6.383156065429687 0.912216 C 6.411812065429688 0.912216 6.423752065429688 0.9002760000000001 6.423752065429688 0.8716200000000001 L 6.423752065429688 0.619686 C 6.423752065429688 0.606552 6.413006065429688 0.597 6.403454065429687 0.597 C 6.3891260654296875 0.597 6.295994065429688 0.660282 6.276890065429687 0.67461 C 6.267338065429687 0.6817740000000001 6.263756065429687 0.687744 6.263756065429687 0.705654 L 6.263756065429687 0.780876 L 6.165848065429688 0.780876 C 6.157490065429688 0.780876 6.150326065429687 0.7749060000000001 6.150326065429687 0.766548 L 6.150326065429687 0.63282 L 6.2876360654296874 0.545658 C 6.305546065429687 0.534912 6.310322065429688 0.52536 6.310322065429688 0.505062 L 6.310322065429688 0.39521400000000007 C 6.310322065429688 0.3820800000000001 6.301964065429687 0.37014 6.2876360654296874 0.37014 C 6.278084065429687 0.37014 6.267338065429687 0.374916 6.256592065429688 0.3820800000000001 L 6.150326065429687 0.44894400000000007 L 6.150326065429687 0.15641400000000005 C 6.150326065429687 0.14925 6.157490065429688 0.14208600000000005 6.165848065429688 0.14208600000000005 L 6.263756065429687 0.14208600000000005 L 6.263756065429687 0.27342600000000006 C 6.263756065429687 0.28656000000000004 6.2745020654296875 0.29611200000000004 6.284054065429688 0.29611200000000004 C 6.298382065429688 0.29611200000000004 6.391514065429687 0.2328300000000001 6.410618065429688 0.21850200000000009 C 6.420170065429687 0.21133800000000003 6.423752065429688 0.205368 6.423752065429688 0.187458 L 6.423752065429688 0.051342 C 6.423752065429688 0.022686000000000095 6.411812065429688 0.010746000000000033 6.383156065429687 0.010746000000000033 L 5.965256065429688 0.010746000000000033 C 5.948540065429688 0.010746000000000033 5.938988065429688 0.020298000000000038 5.938988065429688 0.03104400000000007 C 5.938988065429688 0.056118 5.990330065429688 0.0835800000000001 5.990330065429688 0.13134 L 5.990330065429688 0.791622 C 5.990330065429688 0.8393820000000001 5.938988065429688 0.8668440000000001 5.938988065429688 0.891918 C 5.938988065429688 0.902664 5.948540065429688 0.912216 5.965256065429688 0.912216" fill="#000000" fill-rule="nonzero"></path></g><g><path d=" M 0.1323675 1.6084475624999999 Q 0.07867125 1.6084475624999999 0.045579375000000005 1.5787897499999997 Q 0.0124875 1.5491319374999997 0.0124875 1.5004306874999997 Q 0.0124875 1.4710850624999998 0.0327796875 1.4414272499999998 Q 0.053071875000000004 1.4117694374999998 0.0999 1.3805506874999998 Q 0.07679812500000001 1.3562000624999997 0.06587156250000001 1.3402784999999997 Q 0.054945 1.3243569374999997 0.051510937500000006 1.3112450624999998 Q 0.048076875000000005 1.2981331874999997 0.048076875000000005 1.2812750624999998 Q 0.048076875000000005 1.2594219374999998 0.0621253125 1.2369444374999998 Q 0.07617375 1.2144669374999997 0.101773125 1.1991697499999998 Q 0.1273725 1.1838725624999997 0.16108875 1.1838725624999997 Q 0.20979 1.1838725624999997 0.236638125 1.2063500624999999 Q 0.26348625000000003 1.2288275624999998 0.26348625000000003 1.2637925624999997 Q 0.26348625000000003 1.2925138124999997 0.236638125 1.3149913124999997 Q 0.20979 1.3374688124999998 0.16358625000000002 1.3655656874999997 Q 0.16858125000000002 1.3705606874999998 0.17357625000000002 1.3755556874999997 Q 0.17857125000000001 1.3805506874999998 0.18419062500000002 1.3861700624999997 L 0.28409062500000004 1.4860700624999998 Q 0.3021975 1.4585975624999998 0.31749468750000004 1.4233203749999999 Q 0.332791875 1.3880431874999997 0.346528125 1.3455856874999998 L 0.285339375 1.3212350624999998 L 0.285339375 1.3112450624999998 L 0.433940625 1.3112450624999998 L 0.433940625 1.3212350624999998 L 0.38086875000000003 1.3443369374999998 Q 0.36088875000000004 1.3905406874999997 0.34122093750000004 1.4301884999999999 Q 0.321553125 1.4698363124999998 0.30032437500000003 1.5023038124999997 L 0.36838125000000005 1.5697363124999997 L 0.420204375 1.5922138124999998 L 0.420204375 1.6022038124999998 L 0.31968 1.6022038124999998 L 0.264735 1.5472588124999997 Q 0.23788687500000003 1.5766044374999997 0.20541937500000002 1.5925259999999997 Q 0.172951875 1.6084475624999999 0.1323675 1.6084475624999999 M 0.1023975 1.2687875624999998 Q 0.1023975 1.2893919374999998 0.11301187500000001 1.3071866249999997 Q 0.12362625000000001 1.3249813124999998 0.14860125000000002 1.3505806874999997 Q 0.177946875 1.3293519374999998 0.19418062500000002 1.3106206874999997 Q 0.21041437500000001 1.2918894374999996 0.21041437500000001 1.2662900624999998 Q 0.21041437500000001 1.2413150624999998 0.1951171875 1.2266422499999998 Q 0.17982 1.2119694374999996 0.156718125 1.2119694374999996 Q 0.134240625 1.2119694374999996 0.1183190625 1.2269544374999999 Q 0.1023975 1.2419394374999997 0.1023975 1.2687875624999998 M 0.06993 1.4854456874999997 Q 0.06993 1.5116694374999997 0.08179312500000001 1.5300884999999997 Q 0.09365625000000001 1.5485075624999998 0.11363625000000001 1.5581853749999999 Q 0.13361625000000002 1.5678631874999998 0.156718125 1.5678631874999998 Q 0.20729250000000002 1.5678631874999998 0.24787687500000002 1.5304006874999998 L 0.156718125 1.4392419374999998 Q 0.144230625 1.4267544374999996 0.13361625000000002 1.4161400624999998 Q 0.12300187500000001 1.4055256874999997 0.114260625 1.3961600624999997 Q 0.094280625 1.4117694374999998 0.084915 1.4248813124999997 Q 0.075549375 1.4379931874999998 0.07273968750000001 1.4523538124999997 Q 0.06993 1.4667144374999999 0.06993 1.4854456874999997 M 0.6293745730590821 1.6022038124999998 L 0.6293745730590821 1.5922138124999998 L 0.679324573059082 1.5672388124999999 L 0.679324573059082 1.2250813124999997 L 0.6293745730590821 1.2001063124999998 L 0.6293745730590821 1.1901163124999998 L 0.928450198059082 1.1901163124999998 L 0.928450198059082 1.2975088124999998 L 0.9184601980590821 1.2975088124999998 L 0.8797489480590821 1.2244569374999998 L 0.735518323059082 1.2244569374999998 L 0.735518323059082 1.3724338124999997 L 0.835418323059082 1.3724338124999997 L 0.866637073059082 1.3206106874999999 L 0.876627073059082 1.3206106874999999 L 0.876627073059082 1.4573488124999998 L 0.866637073059082 1.4573488124999998 L 0.835418323059082 1.4067744374999998 L 0.735518323059082 1.4067744374999998 L 0.735518323059082 1.5672388124999999 L 0.7917120730590821 1.5922138124999998 L 0.7917120730590821 1.6022038124999998 L 0.6293745730590821 1.6022038124999998 M 1.0152468594360353 1.6022038124999998 L 1.0152468594360353 1.5922138124999998 L 1.0651968594360353 1.5672388124999999 L 1.0651968594360353 1.2250813124999997 L 1.0152468594360353 1.2001063124999998 L 1.0152468594360353 1.1901163124999998 L 1.1713406094360352 1.1901163124999998 L 1.1713406094360352 1.2001063124999998 L 1.1213906094360353 1.2250813124999997 L 1.1213906094360353 1.5672388124999999 L 1.1713406094360352 1.5922138124999998 L 1.1713406094360352 1.6022038124999998 L 1.0152468594360353 1.6022038124999998 M 1.3792666305541994 1.6084475624999999 Q 1.3405553805541994 1.6084475624999999 1.3137072555541993 1.6012672499999998 Q 1.2868591305541994 1.5940869374999997 1.2581378805541994 1.5797263124999998 L 1.2518941305541993 1.4773288124999997 L 1.2618841305541992 1.4773288124999997 L 1.2924785055541994 1.5435125624999997 Q 1.3149560055541993 1.5622438124999998 1.3361847555541992 1.5706728749999999 Q 1.3574135055541994 1.5791019374999997 1.3792666305541994 1.5791019374999997 Q 1.4161047555541995 1.5791019374999997 1.4370213180541993 1.5597463124999997 Q 1.4579378805541994 1.5403906874999997 1.4579378805541994 1.5072988124999998 Q 1.4579378805541994 1.4798263124999997 1.4457625680541994 1.4642169374999998 Q 1.4335872555541993 1.4486075624999997 1.4107975680541993 1.4364322499999997 Q 1.3880078805541993 1.4242569374999998 1.3567891305541993 1.4086475624999997 Q 1.3274435055541993 1.3936625624999999 1.3068391305541993 1.3793019374999997 Q 1.2862347555541993 1.3649413124999998 1.2756203805541992 1.3458978749999997 Q 1.2650060055541994 1.3268544374999998 1.2650060055541994 1.2981331874999997 Q 1.2650060055541994 1.2769044374999998 1.2753081930541994 1.2566122499999999 Q 1.2856103805541994 1.2363200624999997 1.3034050680541993 1.2197741249999998 Q 1.3211997555541994 1.2032281874999997 1.3433650680541993 1.1935503749999996 Q 1.3655303805541994 1.1838725624999997 1.3892566305541993 1.1838725624999997 Q 1.4179778805541994 1.1838725624999997 1.4423285055541994 1.1907406874999997 Q 1.4666791305541993 1.1976088124999997 1.4922785055541994 1.2100963124999997 L 1.4985222555541995 1.3099963124999998 L 1.4885322555541993 1.3099963124999998 L 1.4598110055541993 1.2444369374999997 Q 1.4379578805541993 1.2282031874999997 1.4217241305541994 1.2210228749999996 Q 1.4054903805541994 1.2138425624999998 1.3842616305541993 1.2138425624999998 Q 1.3567891305541993 1.2138425624999998 1.3389944430541993 1.2325738124999996 Q 1.3211997555541994 1.2513050624999997 1.3211997555541994 1.2787775624999997 Q 1.3211997555541994 1.3106206874999997 1.3405553805541994 1.3284153749999996 Q 1.3599110055541994 1.3462100624999997 1.4011197555541994 1.3661900624999999 Q 1.4392066305541993 1.3849213124999997 1.4635572555541994 1.4008428749999997 Q 1.4879078805541994 1.4167644374999997 1.4997710055541993 1.4373688124999997 Q 1.5116341305541994 1.4579731874999997 1.5116341305541994 1.4898163124999997 Q 1.5116341305541994 1.5191619374999998 1.4991466305541994 1.5413272499999997 Q 1.4866591305541994 1.5634925624999998 1.4669913180541994 1.5784775624999998 Q 1.4473235055541993 1.5934625624999998 1.4239094430541994 1.6009550624999997 Q 1.4004953805541993 1.6084475624999999 1.3792666305541994 1.6084475624999999 M 1.5859384140014647 1.6022038124999998 L 1.5859384140014647 1.5922138124999998 L 1.635888414001465 1.5672388124999999 L 1.635888414001465 1.2250813124999997 L 1.5859384140014647 1.2001063124999998 L 1.5859384140014647 1.1901163124999998 L 1.7420321640014649 1.1901163124999998 L 1.7420321640014649 1.2001063124999998 L 1.692082164001465 1.2250813124999997 L 1.692082164001465 1.3724338124999997 L 1.904369664001465 1.3724338124999997 L 1.904369664001465 1.2250813124999997 L 1.854419664001465 1.2001063124999998 L 1.854419664001465 1.1901163124999998 L 2.0105134140014647 1.1901163124999998 L 2.0105134140014647 1.2001063124999998 L 1.960563414001465 1.2250813124999997 L 1.960563414001465 1.5672388124999999 L 2.0105134140014647 1.5922138124999998 L 2.0105134140014647 1.6022038124999998 L 1.854419664001465 1.6022038124999998 L 1.854419664001465 1.5922138124999998 L 1.904369664001465 1.5672388124999999 L 1.904369664001465 1.4067744374999998 L 1.692082164001465 1.4067744374999998 L 1.692082164001465 1.5672388124999999 L 1.7420321640014649 1.5922138124999998 L 1.7420321640014649 1.6022038124999998 L 1.5859384140014647 1.6022038124999998 M 2.0941781396484376 1.6022038124999998 L 2.0941781396484376 1.5922138124999998 L 2.1441281396484375 1.5672388124999999 L 2.1441281396484375 1.2250813124999997 L 2.0941781396484376 1.2001063124999998 L 2.0941781396484376 1.1901163124999998 L 2.2502718896484377 1.1901163124999998 L 2.2502718896484377 1.2001063124999998 L 2.2003218896484373 1.2250813124999997 L 2.2003218896484373 1.5672388124999999 L 2.2502718896484377 1.5922138124999998 L 2.2502718896484377 1.6022038124999998 L 2.0941781396484376 1.6022038124999998 M 2.330825410766602 1.6022038124999998 L 2.330825410766602 1.5922138124999998 L 2.380775410766602 1.5672388124999999 L 2.380775410766602 1.2263300624999998 L 2.3314497857666017 1.2001063124999998 L 2.3314497857666017 1.1901163124999998 L 2.4232329107666017 1.1901163124999998 L 2.661744160766602 1.4898163124999997 L 2.661744160766602 1.2238325624999997 L 2.5993066607666018 1.2001063124999998 L 2.5993066607666018 1.1901163124999998 L 2.754776035766602 1.1901163124999998 L 2.754776035766602 1.2001063124999998 L 2.705450410766602 1.2244569374999998 L 2.705450410766602 1.6053256874999997 L 2.682348535766602 1.6053256874999997 L 2.424481660766602 1.2800263124999998 L 2.424481660766602 1.5678631874999998 L 2.4869191607666017 1.5922138124999998 L 2.4869191607666017 1.6022038124999998 L 2.330825410766602 1.6022038124999998 M 3.043244297790528 1.6084475624999999 Q 2.9833042977905277 1.6084475624999999 2.936163985290528 1.5822238124999997 Q 2.8890236727905276 1.5560000624999997 2.8621755477905277 1.5107328749999998 Q 2.835327422790528 1.4654656874999998 2.835327422790528 1.4073988124999999 Q 2.835327422790528 1.3593219374999999 2.8524977352905276 1.3187375624999997 Q 2.869668047790528 1.2781531874999996 2.9005746102905277 1.2478709999999997 Q 2.931481172790528 1.2175888124999998 2.9714411727905277 1.2007306874999997 Q 3.011401172790528 1.1838725624999997 3.057604922790528 1.1838725624999997 Q 3.0900724227905276 1.1838725624999997 3.1131742977905277 1.1876188124999998 Q 3.1362761727905277 1.1913650624999996 3.1543830477905277 1.1982331874999996 Q 3.1724899227905277 1.2051013124999996 3.1905967977905276 1.2138425624999998 L 3.193718672790528 1.3168644374999998 L 3.1837286727905276 1.3168644374999998 L 3.1431442977905277 1.2469344374999998 Q 3.116920547790528 1.2288275624999998 3.098501485290528 1.2219594374999998 Q 3.080082422790528 1.2150913124999998 3.0563561727905277 1.2150913124999998 Q 3.0082792977905277 1.2150913124999998 2.970816797790528 1.2360078749999999 Q 2.933354297790528 1.2569244374999997 2.9121255477905277 1.2934503749999997 Q 2.890896797790528 1.3299763124999997 2.890896797790528 1.3761800624999998 Q 2.890896797790528 1.4386175624999997 2.913686485290528 1.4823238124999998 Q 2.936476172790528 1.5260300624999998 2.975187422790528 1.5491319374999997 Q 3.013898672790528 1.5722338124999997 3.061351172790528 1.5722338124999997 Q 3.081955547790528 1.5722338124999997 3.100998985290528 1.5697363124999997 Q 3.1200424227905277 1.5672388124999999 3.1406467977905277 1.5591219374999998 L 3.1406467977905277 1.4561000624999998 L 3.085077422790528 1.4311250624999998 L 3.085077422790528 1.4211350624999999 L 3.239922422790528 1.4211350624999999 L 3.239922422790528 1.4311250624999998 L 3.196840547790528 1.4579731874999997 L 3.196840547790528 1.5560000624999997 Q 3.1681192977905277 1.5797263124999998 3.125973985290528 1.5940869374999997 Q 3.0838286727905277 1.6084475624999999 3.043244297790528 1.6084475624999999 M 3.590824526367188 1.6084475624999999 Q 3.552113276367188 1.6084475624999999 3.525265151367188 1.6012672499999998 Q 3.498417026367188 1.5940869374999997 3.469695776367188 1.5797263124999998 L 3.463452026367188 1.4773288124999997 L 3.473442026367188 1.4773288124999997 L 3.504036401367188 1.5435125624999997 Q 3.526513901367188 1.5622438124999998 3.547742651367188 1.5706728749999999 Q 3.568971401367188 1.5791019374999997 3.590824526367188 1.5791019374999997 Q 3.627662651367188 1.5791019374999997 3.648579213867188 1.5597463124999997 Q 3.669495776367188 1.5403906874999997 3.669495776367188 1.5072988124999998 Q 3.669495776367188 1.4798263124999997 3.657320463867188 1.4642169374999998 Q 3.645145151367188 1.4486075624999997 3.622355463867188 1.4364322499999997 Q 3.599565776367188 1.4242569374999998 3.568347026367188 1.4086475624999997 Q 3.539001401367188 1.3936625624999999 3.518397026367188 1.3793019374999997 Q 3.497792651367188 1.3649413124999998 3.487178276367188 1.3458978749999997 Q 3.476563901367188 1.3268544374999998 3.476563901367188 1.2981331874999997 Q 3.476563901367188 1.2769044374999998 3.486866088867188 1.2566122499999999 Q 3.497168276367188 1.2363200624999997 3.514962963867188 1.2197741249999998 Q 3.532757651367188 1.2032281874999997 3.554922963867188 1.1935503749999996 Q 3.577088276367188 1.1838725624999997 3.600814526367188 1.1838725624999997 Q 3.629535776367188 1.1838725624999997 3.653886401367188 1.1907406874999997 Q 3.678237026367188 1.1976088124999997 3.703836401367188 1.2100963124999997 L 3.710080151367188 1.3099963124999998 L 3.700090151367188 1.3099963124999998 L 3.671368901367188 1.2444369374999997 Q 3.649515776367188 1.2282031874999997 3.633282026367188 1.2210228749999996 Q 3.617048276367188 1.2138425624999998 3.595819526367188 1.2138425624999998 Q 3.568347026367188 1.2138425624999998 3.5505523388671882 1.2325738124999996 Q 3.532757651367188 1.2513050624999997 3.532757651367188 1.2787775624999997 Q 3.532757651367188 1.3106206874999997 3.552113276367188 1.3284153749999996 Q 3.571468901367188 1.3462100624999997 3.612677651367188 1.3661900624999999 Q 3.650764526367188 1.3849213124999997 3.675115151367188 1.4008428749999997 Q 3.699465776367188 1.4167644374999997 3.711328901367188 1.4373688124999997 Q 3.723192026367188 1.4579731874999997 3.723192026367188 1.4898163124999997 Q 3.723192026367188 1.5191619374999998 3.710704526367188 1.5413272499999997 Q 3.698217026367188 1.5634925624999998 3.6785492138671883 1.5784775624999998 Q 3.658881401367188 1.5934625624999998 3.635467338867188 1.6009550624999997 Q 3.612053276367188 1.6084475624999999 3.590824526367188 1.6084475624999999 M 4.009783809814453 1.6084475624999999 Q 3.9629556848144536 1.6084475624999999 3.9264297473144536 1.5909650624999998 Q 3.8899038098144536 1.5734825624999997 3.8686750598144535 1.5369566249999997 Q 3.8474463098144533 1.5004306874999997 3.8474463098144533 1.4423638124999998 L 3.8474463098144533 1.2250813124999997 L 3.7974963098144534 1.2001063124999998 L 3.7974963098144534 1.1901163124999998 L 3.9535900598144536 1.1901163124999998 L 3.9535900598144536 1.2001063124999998 L 3.9036400598144536 1.2250813124999997 L 3.9036400598144536 1.4329981874999997 Q 3.9036400598144536 1.4848213124999998 3.9198738098144537 1.5154156874999998 Q 3.9361075598144537 1.5460100624999997 3.9638922473144533 1.5591219374999998 Q 3.9916769348144534 1.5722338124999997 4.026017559814454 1.5722338124999997 Q 4.053490059814454 1.5722338124999997 4.0769041223144535 1.5603706874999999 Q 4.100318184814453 1.5485075624999998 4.114366622314454 1.5229081874999997 Q 4.128415059814453 1.4973088124999998 4.128415059814453 1.4548513124999998 L 4.128415059814453 1.2238325624999997 L 4.065977559814454 1.2001063124999998 L 4.065977559814454 1.1901163124999998 L 4.221446934814454 1.1901163124999998 L 4.221446934814454 1.2001063124999998 L 4.172121309814454 1.2244569374999998 L 4.172121309814454 1.4423638124999998 Q 4.172121309814454 1.5004306874999997 4.150892559814453 1.5369566249999997 Q 4.129663809814454 1.5734825624999997 4.093137872314453 1.5909650624999998 Q 4.056611934814454 1.6084475624999999 4.009783809814453 1.6084475624999999 M 4.302004419250489 1.6022038124999998 L 4.302004419250489 1.5922138124999998 L 4.351954419250489 1.5672388124999999 L 4.351954419250489 1.2250813124999997 L 4.302004419250489 1.2001063124999998 L 4.302004419250489 1.1901163124999998 L 4.464341919250489 1.1901163124999998 Q 4.538018169250488 1.1901163124999998 4.582660981750489 1.2169644374999997 Q 4.627303794250489 1.2438125624999998 4.627303794250489 1.3018794374999998 Q 4.627303794250489 1.3362200624999998 4.603889731750489 1.3627559999999996 Q 4.580475669250489 1.3892919374999997 4.540203481750488 1.4049013124999998 Q 4.499931294250489 1.4205106874999998 4.449356919250489 1.4205106874999998 L 4.408148169250489 1.4205106874999998 L 4.408148169250489 1.5672388124999999 L 4.464341919250489 1.5922138124999998 L 4.464341919250489 1.6022038124999998 L 4.302004419250489 1.6022038124999998 M 4.408148169250489 1.2244569374999998 L 4.408148169250489 1.3861700624999997 L 4.461220044250489 1.3861700624999997 Q 4.510545669250488 1.3861700624999997 4.5386425442504885 1.3640047499999999 Q 4.566739419250489 1.3418394374999998 4.566739419250489 1.3068744374999999 Q 4.566739419250489 1.2631681874999998 4.538330356750489 1.2438125624999998 Q 4.509921294250489 1.2244569374999998 4.456849419250489 1.2244569374999998 L 4.408148169250489 1.2244569374999998 M 4.699731599121094 1.6022038124999998 L 4.699731599121094 1.5922138124999998 L 4.749681599121094 1.5672388124999999 L 4.749681599121094 1.2250813124999997 L 4.699731599121094 1.2001063124999998 L 4.699731599121094 1.1901163124999998 L 4.862069099121094 1.1901163124999998 Q 4.935745349121094 1.1901163124999998 4.980388161621094 1.2169644374999997 Q 5.025030974121094 1.2438125624999998 5.025030974121094 1.3018794374999998 Q 5.025030974121094 1.3362200624999998 5.0016169116210945 1.3627559999999996 Q 4.978202849121094 1.3892919374999997 4.937930661621094 1.4049013124999998 Q 4.897658474121094 1.4205106874999998 4.847084099121094 1.4205106874999998 L 4.805875349121094 1.4205106874999998 L 4.805875349121094 1.5672388124999999 L 4.862069099121094 1.5922138124999998 L 4.862069099121094 1.6022038124999998 L 4.699731599121094 1.6022038124999998 M 4.805875349121094 1.2244569374999998 L 4.805875349121094 1.3861700624999997 L 4.858947224121094 1.3861700624999997 Q 4.908272849121094 1.3861700624999997 4.936369724121094 1.3640047499999999 Q 4.964466599121094 1.3418394374999998 4.964466599121094 1.3068744374999999 Q 4.964466599121094 1.2631681874999998 4.936057536621094 1.2438125624999998 Q 4.907648474121094 1.2244569374999998 4.854576599121094 1.2244569374999998 L 4.805875349121094 1.2244569374999998 M 5.097458778991699 1.6022038124999998 L 5.097458778991699 1.5922138124999998 L 5.147408778991699 1.5672388124999999 L 5.147408778991699 1.2250813124999997 L 5.097458778991699 1.2001063124999998 L 5.097458778991699 1.1901163124999998 L 5.2597962789917 1.1901163124999998 L 5.2597962789917 1.2001063124999998 L 5.203602528991699 1.2250813124999997 L 5.203602528991699 1.5678631874999998 L 5.3553256539917 1.5678631874999998 L 5.397783153991699 1.4635925624999997 L 5.407773153991699 1.4635925624999997 L 5.407773153991699 1.6022038124999998 L 5.097458778991699 1.6022038124999998 M 5.488323321533203 1.6022038124999998 L 5.488323321533203 1.5922138124999998 L 5.538273321533204 1.5672388124999999 L 5.538273321533204 1.2250813124999997 L 5.488323321533203 1.2001063124999998 L 5.488323321533203 1.1901163124999998 L 5.644417071533203 1.1901163124999998 L 5.644417071533203 1.2001063124999998 L 5.594467071533203 1.2250813124999997 L 5.594467071533203 1.5672388124999999 L 5.644417071533203 1.5922138124999998 L 5.644417071533203 1.6022038124999998 L 5.488323321533203 1.6022038124999998 M 5.728092467651368 1.6022038124999998 L 5.728092467651368 1.5922138124999998 L 5.7780424676513675 1.5672388124999999 L 5.7780424676513675 1.2250813124999997 L 5.728092467651368 1.2001063124999998 L 5.728092467651368 1.1901163124999998 L 6.033411842651367 1.1901163124999998 L 6.033411842651367 1.2975088124999998 L 6.023421842651368 1.2975088124999998 L 5.984710592651368 1.2244569374999998 L 5.834236217651368 1.2244569374999998 L 5.834236217651368 1.3724338124999997 L 5.940379967651368 1.3724338124999997 L 5.971598717651368 1.3206106874999999 L 5.981588717651368 1.3206106874999999 L 5.981588717651368 1.4573488124999998 L 5.971598717651368 1.4573488124999998 L 5.940379967651368 1.4067744374999998 L 5.834236217651368 1.4067744374999998 L 5.834236217651368 1.5678631874999998 L 6.002193092651368 1.5678631874999998 L 6.040904342651368 1.4885675624999997 L 6.050894342651368 1.4885675624999997 L 6.050894342651368 1.6022038124999998 L 5.728092467651368 1.6022038124999998 M 6.258797193603516 1.6084475624999999 Q 6.220085943603515 1.6084475624999999 6.1932378186035155 1.6012672499999998 Q 6.166389693603516 1.5940869374999997 6.137668443603515 1.5797263124999998 L 6.131424693603516 1.4773288124999997 L 6.141414693603516 1.4773288124999997 L 6.172009068603516 1.5435125624999997 Q 6.194486568603516 1.5622438124999998 6.2157153186035154 1.5706728749999999 Q 6.236944068603516 1.5791019374999997 6.258797193603516 1.5791019374999997 Q 6.295635318603516 1.5791019374999997 6.316551881103516 1.5597463124999997 Q 6.337468443603516 1.5403906874999997 6.337468443603516 1.5072988124999998 Q 6.337468443603516 1.4798263124999997 6.325293131103516 1.4642169374999998 Q 6.313117818603516 1.4486075624999997 6.290328131103516 1.4364322499999997 Q 6.267538443603516 1.4242569374999998 6.236319693603516 1.4086475624999997 Q 6.2069740686035155 1.3936625624999999 6.186369693603516 1.3793019374999997 Q 6.1657653186035155 1.3649413124999998 6.155150943603516 1.3458978749999997 Q 6.144536568603516 1.3268544374999998 6.144536568603516 1.2981331874999997 Q 6.144536568603516 1.2769044374999998 6.154838756103516 1.2566122499999999 Q 6.165140943603515 1.2363200624999997 6.182935631103516 1.2197741249999998 Q 6.200730318603516 1.2032281874999997 6.2228956311035155 1.1935503749999996 Q 6.245060943603516 1.1838725624999997 6.268787193603516 1.1838725624999997 Q 6.297508443603515 1.1838725624999997 6.321859068603516 1.1907406874999997 Q 6.346209693603516 1.1976088124999997 6.371809068603516 1.2100963124999997 L 6.378052818603516 1.3099963124999998 L 6.368062818603516 1.3099963124999998 L 6.3393415686035155 1.2444369374999997 Q 6.317488443603516 1.2282031874999997 6.301254693603516 1.2210228749999996 Q 6.285020943603516 1.2138425624999998 6.263792193603516 1.2138425624999998 Q 6.236319693603516 1.2138425624999998 6.2185250061035156 1.2325738124999996 Q 6.200730318603516 1.2513050624999997 6.200730318603516 1.2787775624999997 Q 6.200730318603516 1.3106206874999997 6.220085943603515 1.3284153749999996 Q 6.239441568603516 1.3462100624999997 6.280650318603516 1.3661900624999999 Q 6.318737193603516 1.3849213124999997 6.343087818603516 1.4008428749999997 Q 6.367438443603516 1.4167644374999997 6.379301568603516 1.4373688124999997 Q 6.391164693603516 1.4579731874999997 6.391164693603516 1.4898163124999997 Q 6.391164693603516 1.5191619374999998 6.378677193603516 1.5413272499999997 Q 6.366189693603515 1.5634925624999998 6.346521881103516 1.5784775624999998 Q 6.326854068603516 1.5934625624999998 6.303440006103516 1.6009550624999997 Q 6.2800259436035155 1.6084475624999999 6.258797193603516 1.6084475624999999" fill="#3361e1" fill-rule="nonzero"></path></g><g clip-path="url(#SvgjsClipPath1188)"><g clip-path="url(#SvgjsClipPath118774158257-a141-4893-bec0-6358c90b3a8e)"><path d=" M -0.30189655676111427 0.8011207484286184 C -0.30189655676111427 0.6554079004471006 -0.26484027214512507 0.5195306697043358 -0.2644948322037899 0.5181677521176127 L -0.2400000000000002 0.4294273715516269 L -0.32199488062063386 0.4712381659056344 C -0.38574485906691036 0.5053771689934488 -0.44636224210391884 0.5450678727814627 -0.5031435858569675 0.5898496803078315 C -0.6023099719250777 0.06883203788081371 -1.061142144185499 -0.32630728992354835 -1.610605195599941 -0.32630728992354835 C -1.9517031294015363 -0.32752926167172886 -2.2747389158634244 -0.1731311049226466 -2.488022646592095 0.093063079583947 C -2.553414156184495 0.0741708892725671 -2.621928221746171 0.11093714280137917 -2.6423364499211313 0.17587148351793047 C -2.6627446780960917 0.2408058242344817 -2.6275821611982746 0.3101566135864805 -2.5631401320170486 0.3320698346308727 L -2.5631401320170486 0.6439078907637316 C -2.6101199640386765 0.6831917396074835 -2.6581507709121244 0.7257101624473777 -2.707232552637393 0.771463159283413 L -2.7390318694188767 0.8011207484286166 L -2.707232552637393 0.8307720568476148 C -2.6580795893484552 0.8766087966997319 -2.6100487824750074 0.9191230323888214 -2.5631401320170495 0.9583147639148847 L -2.5631401320170495 1.2087964057403546 C -2.5636025550252106 1.2707684216066064 -2.613971373944644 1.3207628005050136 -2.675945115041706 1.3207628005050136 C -2.7379188561387675 1.3207628005050136 -2.7882876750582017 1.2707684216066082 -2.7887500980663633 1.2087964057403546 L -2.7887500980663633 1.2037718247754752 L -2.7652224976983133 1.1856519296708772 L -2.869853115565731 1.049850067642585 L -2.869853115565731 1.208808967192767 C -2.87024888369167 1.2783485353331745 -2.8333770270480434 1.3427757561938596 -2.773219089190982 1.3776602897631878 C -2.7130611513339202 1.4125448233325142 -2.6388290787494926 1.4125448233325142 -2.578671140892431 1.3776602897631878 C -2.51851320303537 1.3427757561938596 -2.4816413463917426 1.2783485353331745 -2.482037114517682 1.208808967192768 L -2.482037114517682 1.0236531586369426 C -2.204045891909495 1.2390255409703133 -1.959323676015019 1.337387994084044 -1.7108079014920585 1.337387994084044 C -1.410394486328095 1.337387994084044 -1.0958368757479948 1.1935593639643556 -0.6641688443289557 0.857973882046234 C -0.6366538669442656 0.8910448123128928 -0.6069392870941428 0.9222219345085797 -0.5752274805243753 0.951292912016464 C -0.6483037299323473 1.457324741715727 -1.0846885867321672 1.8474206463765919 -1.610624037778559 1.8474206463765919 C -1.8901486386235336 1.848245524884235 -2.1582137761813254 1.7364007799910341 -2.354262020580785 1.5371527717952564 C -2.3700638233264035 1.5215034006064578 -2.395521144719393 1.5214995733088879 -2.411327652257449 1.5371441924498437 C -2.427134159795505 1.5527888115908 -2.4273923987188173 1.578244823450726 -2.4119065257003705 1.5942068886514686 C -2.200654883144004 1.8089040619975778 -1.9118050556541397 1.929423998484519 -1.6106051955999414 1.928542506054577 C -1.0611609863641172 1.928542506054577 -0.6023413755561084 1.5334220204288327 -0.5031498665831733 1.0124169394542295 C -0.44636311356901803 1.0571961511426986 -0.38574407053114523 1.096888667414004 -0.3219948806206312 1.1310347345826335 L -0.2400188421786189 1.1728078445794026 L -0.26447599002517164 1.0840988676444479 C -0.26485283359753753 1.0827045464266947 -0.30189655676111427 0.9467770698742811 -0.30189655676111427 0.8011207484286184 Z M -0.38215167622265866 0.7605660993158311 L -0.5704101635242966 0.7605660993158311 C -0.5082803409871546 0.6956351760292462 -0.4386635570447659 0.6383077995247805 -0.36302058419888006 0.5897868730457693 C -0.3732358201130368 0.6462217835397246 -0.37962739860944295 0.7032822543383971 -0.38215167622265866 0.7605786607682424 Z M -2.52257292145185 0.16921060410670358 C -2.5046498448378465 0.1692080638080879 -2.4884902953177157 0.18000304509519727 -2.4816302573239057 0.19656132279814897 C -2.4747702193300958 0.21311960050109968 -2.478560840467148 0.23217986946766822 -2.4912343696079313 0.24485339860845157 C -2.5039078987487144 0.2575269277492357 -2.522968167715283 0.26131754888628744 -2.5395264454182342 0.2544575108924769 C -2.5560847231211854 0.2475974728986674 -2.566879704408295 0.23143792337853641 -2.566877164109679 0.21351484676453258 C -2.5668425704602726 0.1890606326839347 -2.5470271355324527 0.16924519775611324 -2.522572921451853 0.16921060410670452 Z M -2.4820182723390634 0.3320698346308737 C -2.444287039839202 0.3192818688203193 -2.4149125208388678 0.28927247586733373 -2.4029341556746364 0.25127646629365796 C -2.3909557905104046 0.2132804567199822 -2.3978087400453356 0.17185023689701523 -2.4213841415453756 0.1397351560214768 C -2.2233747812759335 -0.1047528881655232 -1.9252174731776621 -0.24631120605253942 -1.6106051955999414 -0.2452042724241789 C -1.0846571831011371 -0.2452042724241798 -0.6482409226702868 0.14491675514150898 -0.5751960768933446 0.6509485848407699 C -0.6069150658699409 0.6800184559159702 -0.6366340324612354 0.7111978758538383 -0.6641500021503361 0.7442738955372071 C -1.095830595021789 0.4086507292618493 -1.4103882056018893 0.2648220991421617 -1.7108079014920585 0.2648220991421617 C -1.9593173952888128 0.2648220991421617 -2.204033330457083 0.3631971137083041 -2.4820182723390634 0.5785757767678817 Z M -2.299387315718091 0.5471972686422062 C -2.268875547808858 0.5838264638761805 -2.214314879256468 0.6673601224173092 -2.2089008932668097 0.8011207484286184 C -2.214314879256468 0.9349441817019889 -2.268938355070919 1.0184904016955292 -2.2993433506346483 1.055031666762618 C -2.400877570482459 0.988185897751097 -2.506896228841425 0.9040178858631519 -2.6197169136815974 0.8011207484286184 C -2.5069276324724554 0.6982173302678786 -2.4009152548396955 0.6140493183799337 -2.299387315718091 0.5471972686422062 Z M -2.1300275335706074 0.8355893738476953 C -1.9263561441592003 0.9654999146946642 -1.7932298714947075 0.9805359732320681 -1.7107890593134403 0.9805359732320681 C -1.5810983438836834 0.9805359732320681 -1.4346883352932895 0.9333928423290819 -1.263205667688144 0.8364121489806945 L -1.200781529925717 0.8011207484286204 L -1.263205667688144 0.7658230671503389 C -1.4347008967457011 0.6688360930757443 -1.581098343883683 0.621692962172759 -1.7108079014920585 0.621692962172759 C -1.7932549943995313 0.621692962172759 -1.9263938285164368 0.6367164592577504 -2.1300275335706074 0.7666144386523078 C -2.1332334011369185 0.7317024611754367 -2.139797819712161 0.6971808969090297 -2.149629680059845 0.6635288794315904 C -1.9941942679112854 0.5699963047703508 -1.8502777076247126 0.5243668288830351 -1.7108079014920585 0.5243668288830351 C -1.5152826139699633 0.5243668288830351 -1.3020645207252846 0.6100484957866497 -1.024550633308761 0.8011207484286204 C -1.3020833629039028 0.9921741588919731 -1.5152826139699629 1.077862106521792 -1.7107890593134403 1.077862106521792 C -1.8502902690771248 1.077862106521792 -1.9942005486374912 1.0322451920868896 -2.149635960786051 0.9387126174256492 C -2.1397979648128533 0.9050489517779327 -2.1332313904391773 0.8705144916109288 -2.1300275335706074 0.8355893738476953 Z M -2.030264478512917 0.8011019062500008 C -1.876518581713798 0.7137998119852117 -1.7755245043197116 0.7027959796721247 -1.7108079014920585 0.7027959796721247 C -1.6117357263170389 0.7027959796721247 -1.4993986573947369 0.7350475087404474 -1.3688977282843935 0.8011207484286184 C -1.4993798152161184 0.8671939881167893 -1.611729445590833 0.8994266750064942 -1.7107890593134403 0.8994266750064942 C -1.7754993814148876 0.8994266750064942 -1.8765060202613855 0.8884291234196137 -2.030264478512917 0.8011019062500008 Z M -1.7107890593134403 1.256272415132265 C -1.8797405942575274 1.256272415132265 -2.0483466892602786 1.2059261138641681 -2.2303118889034046 1.0982744666916173 C -2.210344249576974 1.0725718682714906 -2.193178030534645 1.0448107253703371 -2.179105128145072 1.01546309166419 C -2.015341473047224 1.1118345545705868 -1.8616395413315472 1.1589651240211607 -1.7107890593134403 1.1589651240211607 C -1.4864226770529343 1.1589651240211607 -1.2457201259303627 1.058781260307661 -0.9303585823958811 0.8341448068202914 L -0.8839942615424521 0.8011207484286184 L -0.9303585823958811 0.7680904093107391 C -1.2457201259303627 0.543435113644752 -1.4864226770529343 0.44325753065745854 -1.7108079014920585 0.44325753065745854 C -1.8616332606053412 0.44325753065745854 -2.0153351923210177 0.4903629772032083 -2.179098847418866 0.5867658437406353 C -2.19317170039196 0.5574148523672284 -2.2103401472854918 0.5296514061153126 -2.230311888903405 0.5039481879870019 C -2.048352969986485 0.3962776986358313 -1.8797594364361454 0.34592511664152925 -1.7108079014920585 0.34592511664152925 C -1.4318682892267505 0.34592511664152925 -1.1346140793444555 0.4825120694455831 -0.7231134597732032 0.8011207484286184 C -1.134601517892043 1.1196980237806242 -1.43183688559572 1.256272415132265 -1.7107890593134403 1.256272415132265 Z M -0.5704101635242966 0.8416691168152005 L -0.38215167622265866 0.8416691168152005 C -0.379625324229226 0.8989632813666634 -0.3732337602997955 0.9560215237727904 -0.36302058419887784 1.012454623811474 C -0.43866323598477086 0.9639308293837437 -0.5082799314689637 0.9066014174029383 -0.5704101635242966 0.8416691168152005 Z M -2.329591328043225 0.8011207484286204 C -2.329598265162109 0.8309989187454611 -2.3538237051755067 0.8552149863450066 -2.3837018759398347 0.8552103618675121 C -2.413580046704162 0.8552057373900183 -2.4377979893377786 0.8309821718303539 -2.4377956775017005 0.8011040007975833 C -2.437793365665622 0.7712258297648119 -2.4135716747048184 0.7470060122422163 -2.383693503582608 0.7470060114368632 C -2.3693420268400116 0.7470043443086504 -2.355578054238992 0.7527055677256892 -2.345431205662708 0.7628547721990199 C -2.3352843570864237 0.7730039766723497 -2.3295863291735497 0.7867692724598264 -2.329591328043225 0.8011207484286184 Z" fill="#3361e1" transform="matrix(1,0,0,1,0,0)" fill-rule="nonzero"></path></g></g></g><defs><clipPath id="SvgjsClipPath1188"><path d=" M -2.869834273387113 -0.3263072899235474 h 2.6298342733871127 v 2.2548183923470946 h -2.6298342733871127 Z"></path></clipPath><clipPath id="SvgjsClipPath118774158257-a141-4893-bec0-6358c90b3a8e"><path d=" M -2.869834273387113 -0.3263072899235474 L -0.2400000000000002 -0.3263072899235474 L -0.2400000000000002 1.9285111024235473 L -2.869834273387113 1.9285111024235473 Z"></path></clipPath></defs></svg>